<svg width="24" height="24" viewBox="0 0 24 24" fill="none" xmlns="http://www.w3.org/2000/svg">
<path d="M0.301165 17.615C0.171165 17.275 -0.220835 16.103 0.168165 15.183L9.99516 20.857C10.0453 20.886 10.1022 20.9013 10.1602 20.9013C10.2181 20.9013 10.275 20.886 10.3252 20.857L24.0002 12.962V15.316L10.1602 23.306L0.300165 17.615H0.301165ZM0.191165 8.96297C-0.0968355 9.83997 0.206165 11.021 0.315165 11.389L10.1602 17.073L24.0002 9.08297V6.72597L10.3252 14.622C10.275 14.651 10.2181 14.6663 10.1602 14.6663C10.1022 14.6663 10.0453 14.651 9.99516 14.622L0.190165 8.96297H0.191165ZM13.3612 7.02697C13.3168 7.05206 13.2672 7.06657 13.2163 7.0694C13.1653 7.07222 13.1144 7.06328 13.0675 7.04326C13.0206 7.02324 12.979 6.99268 12.9458 6.95396C12.9126 6.91524 12.8888 6.86939 12.8762 6.81997L12.5962 5.68697L10.4702 5.51097C10.4003 5.50501 10.3341 5.47694 10.2812 5.43083C10.2284 5.38472 10.1916 5.32296 10.1762 5.25453C10.1608 5.18609 10.1677 5.11453 10.1957 5.05024C10.2237 4.98595 10.2715 4.93226 10.3322 4.89697L15.9102 1.67697L14.2082 0.69397L0.698165 8.49397L10.1602 13.956L23.6702 6.15597L19.2702 3.61597L13.3602 7.02597L13.3612 7.02697ZM13.1792 5.29797L13.4112 6.23597L18.6092 3.23497L16.5692 2.05697L11.5762 4.94097L12.8862 5.04897C12.955 5.05472 13.0204 5.08194 13.0729 5.12679C13.1255 5.17164 13.1627 5.23187 13.1792 5.29897V5.29797ZM24.0002 9.84497L10.3252 17.74C10.275 17.769 10.2181 17.7843 10.1602 17.7843C10.1022 17.7843 10.0453 17.769 9.99516 17.74L0.168165 12.067C-0.221835 12.986 0.171165 14.158 0.301165 14.497L10.1602 20.19L24.0002 12.2V9.84397V9.84497Z" fill="#4A0E5C"/>
</svg>
