<svg width="32" height="32" viewBox="0 0 32 32" fill="none" xmlns="http://www.w3.org/2000/svg">
<path d="M30.545 7.89299C30.3406 7.47193 30.0546 7.0956 29.7038 6.78578C29.3529 6.47595 28.9441 6.23878 28.501 6.08799L15.964 1.80899C15.5217 1.65478 15.0532 1.59013 14.5857 1.6188C14.1182 1.64747 13.6611 1.76889 13.241 1.97599C12.8214 2.18009 12.4467 2.46581 12.1389 2.81643C11.831 3.16705 11.5961 3.57553 11.448 4.01799L11.308 4.42799L10.894 4.28699C10.0019 3.98329 9.02578 4.04569 8.17962 4.46053C7.33346 4.87536 6.6863 5.60877 6.38001 6.49999L1.28601 21.392C0.982046 22.2843 1.04444 23.2608 1.45949 24.1073C1.87454 24.9537 2.60837 25.6009 3.50001 25.907L16.038 30.196C16.415 30.325 16.804 30.389 17.191 30.389C17.726 30.389 18.258 30.266 18.754 30.024C19.1741 29.8196 19.5494 29.5338 19.8582 29.1833C20.167 28.8328 20.4032 28.4245 20.553 27.982L20.694 27.57L21.104 27.709C21.5431 27.8617 22.0079 27.9261 22.472 27.8987C22.936 27.8712 23.39 27.7524 23.808 27.549C24.2307 27.3444 24.6086 27.0579 24.9198 26.7062C25.231 26.3544 25.4694 25.9445 25.621 25.5L30.71 10.613C30.8641 10.1713 30.9289 9.70337 30.9006 9.23642C30.8722 8.76948 30.7514 8.31282 30.545 7.89299ZM16.62 28.492L4.08201 24.203C3.64174 24.052 3.27937 23.7325 3.07445 23.3146C2.86953 22.8967 2.8388 22.4145 2.98901 21.974L8.08301 7.08299C8.23401 6.63899 8.55001 6.28099 8.97201 6.07499C9.17874 5.97263 9.40375 5.91241 9.63397 5.89782C9.86419 5.88323 10.095 5.91456 10.313 5.98999L22.851 10.279C23.2913 10.43 23.6536 10.7495 23.8586 11.1674C24.0635 11.5853 24.0942 12.0674 23.944 12.508L18.85 27.399C18.7755 27.6173 18.6586 27.8187 18.5062 27.9918C18.3537 28.1649 18.1687 28.3062 17.9616 28.4077C17.7545 28.5092 17.5294 28.5689 17.2992 28.5834C17.069 28.5979 16.8382 28.5668 16.62 28.492ZM29.008 10.028L23.919 24.916C23.8438 25.1358 23.7259 25.3386 23.5719 25.5127C23.4179 25.6867 23.2311 25.8285 23.022 25.93C22.8159 26.0306 22.5918 26.0893 22.3627 26.1025C22.1337 26.1157 21.9044 26.0832 21.688 26.007L21.277 25.868L25.647 13.091C25.7995 12.6494 25.8628 12.182 25.8333 11.7157C25.8037 11.2495 25.682 10.7938 25.475 10.375C25.2706 9.95492 24.9849 9.57961 24.6343 9.27079C24.2838 8.96198 23.8755 8.72582 23.433 8.57599L13.011 5.01099L13.152 4.59799C13.301 4.15499 13.615 3.79799 14.034 3.59299C14.2416 3.49074 14.4674 3.43092 14.6983 3.41701C14.9293 3.4031 15.1607 3.43539 15.379 3.51199L27.916 7.78999C28.135 7.8648 28.337 7.98213 28.5105 8.13523C28.6839 8.28832 28.8255 8.47418 28.9269 8.68213C29.0284 8.89007 29.0878 9.11601 29.1017 9.34697C29.1156 9.57793 29.0838 9.80937 29.008 10.028Z" fill="white"/>
<path d="M17.678 14.0741C16.842 13.4491 15.764 13.2751 14.725 13.5621C14.08 12.6981 13.122 12.1771 12.079 12.1591H12.022C10.723 12.1591 9.57 12.9351 8.928 14.2441C7.81 16.5291 9.229 19.2821 11.13 20.9981C11.3847 21.2261 11.6826 21.4007 12.0061 21.5113C12.3296 21.622 12.672 21.6664 13.013 21.6421C15.568 21.4521 18.375 20.1441 18.891 17.6511C19.189 16.2031 18.735 14.8661 17.678 14.0741ZM17.127 17.2861C16.804 18.8521 14.698 19.7111 12.879 19.8471C12.6803 19.8587 12.485 19.7919 12.335 19.6611C10.981 18.4391 9.843 16.4701 10.545 15.0361C10.884 14.3411 11.412 13.9261 12.047 13.9591C12.669 13.9701 13.22 14.3771 13.521 15.0491C13.5716 15.1616 13.6447 15.2625 13.7359 15.3456C13.8271 15.4287 13.9344 15.4921 14.0512 15.532C14.1679 15.5718 14.2916 15.5872 14.4146 15.5773C14.5376 15.5673 14.6572 15.5322 14.766 15.4741C15.415 15.1271 16.1 15.1441 16.6 15.5161C17.091 15.8841 17.284 16.5291 17.127 17.2861Z" fill="white"/>
</svg>
