<svg width="56" height="56" viewBox="0 0 56 56" fill="none" xmlns="http://www.w3.org/2000/svg">
<circle cx="28" cy="28" r="28" fill="#4A0E5C"/>
<path d="M45.5099 19.2772C45.2807 18.7739 44.9539 18.321 44.5485 17.9448C44.1431 17.5686 43.6671 17.2765 43.1481 17.0855L28.4637 11.6657C27.9458 11.4707 27.3943 11.3807 26.8412 11.4009C26.2881 11.4211 25.7446 11.5512 25.2424 11.7836C24.7408 12.0125 24.2899 12.3391 23.916 12.7443C23.5421 13.1495 23.2528 13.6251 23.0649 14.1435L22.8876 14.6237L22.4027 14.4451C21.3578 14.0603 20.2029 14.1056 19.1913 14.571C18.1797 15.0363 17.3939 15.8838 17.0061 16.9276L10.555 34.37C10.17 35.4152 10.2152 36.5705 10.6808 37.5824C11.1464 38.5943 11.9944 39.3802 13.0387 39.7678L27.724 45.1994C28.1655 45.3628 28.6232 45.4497 29.0803 45.461C29.7123 45.4766 30.3443 45.3468 30.9372 45.0754C31.4393 44.8462 31.891 44.5196 32.266 44.1145C32.641 43.7095 32.9318 43.234 33.1217 42.7157L33.3003 42.2332L33.7805 42.4093C34.2947 42.6024 34.842 42.6921 35.3909 42.6732C35.9398 42.6543 36.4796 42.5272 36.9792 42.2991C37.4845 42.0697 37.9393 41.7423 38.3171 41.3359C38.695 40.9295 38.9884 40.4522 39.1805 39.9316L45.6256 22.4949C45.8205 21.9777 45.9106 21.4268 45.8908 20.8744C45.8709 20.322 45.7415 19.7791 45.5099 19.2772ZM28.4611 43.2035L13.7758 37.7719C13.2602 37.5807 12.8414 37.1927 12.6116 36.6931C12.3817 36.1935 12.3594 35.6231 12.5497 35.1071L19.0008 17.6659C19.1921 17.1458 19.5758 16.7321 20.0803 16.5011C20.3274 16.3862 20.595 16.3216 20.8674 16.3111C21.1397 16.3006 21.4115 16.3443 21.6668 16.4398L36.352 21.8714C36.8677 22.0626 37.2864 22.4506 37.5163 22.9502C37.7462 23.4498 37.7684 24.0202 37.5782 24.5362L31.1271 41.9774C31.0327 42.2331 30.8888 42.4676 30.7037 42.6677C30.5186 42.8677 30.2958 43.0292 30.0482 43.1431C29.8006 43.257 29.533 43.3209 29.2607 43.3313C28.9883 43.3417 28.7166 43.2983 28.4611 43.2035ZM43.6322 21.7543L37.1871 39.1921C37.0919 39.4497 36.9466 39.6858 36.7597 39.8869C36.5728 40.088 36.3479 40.25 36.098 40.3638C35.8515 40.4766 35.5851 40.5394 35.3142 40.5483C35.0433 40.5573 34.7733 40.5122 34.52 40.4159L34.0385 40.2397L39.5728 25.2745C39.7658 24.7573 39.8542 24.207 39.8329 23.6554C39.8116 23.1039 39.681 22.562 39.4488 22.0613C39.2196 21.5591 38.893 21.1074 38.4879 20.7325C38.0829 20.3575 37.6074 20.0666 37.0891 19.8767L24.8823 15.362L25.0608 14.8782C25.2498 14.3593 25.6311 13.9467 26.132 13.7168C26.3801 13.6021 26.6486 13.538 26.9218 13.5283C27.195 13.5186 27.4674 13.5635 27.7231 13.6603L42.4075 19.0789C42.6639 19.1737 42.8991 19.3181 43.0996 19.504C43.3001 19.6899 43.4618 19.9136 43.5756 20.1622C43.6894 20.4108 43.753 20.6794 43.7627 20.9526C43.7724 21.2258 43.728 21.4983 43.6322 21.7543Z" fill="white"/>
<path d="M30.1309 26.2031C29.1616 25.4405 27.8933 25.2035 26.6577 25.5123C25.921 24.4729 24.8045 23.8295 23.573 23.7779L23.5057 23.7762C21.9713 23.7384 20.5867 24.6214 19.7902 26.1489C18.403 28.8155 19.999 32.1087 22.1945 34.1911C22.4887 34.468 22.8355 34.6828 23.2144 34.8229C23.5933 34.963 23.9965 35.0255 24.4 35.0067C27.4235 34.8567 30.7774 33.3935 31.4595 30.4637C31.8537 28.762 31.3564 27.1694 30.1309 26.2031ZM29.3865 29.9811C28.9593 31.8215 26.4466 32.7748 24.294 32.8825C24.059 32.8904 23.8302 32.8058 23.6568 32.6469C22.0931 31.164 20.8062 28.805 21.6772 27.1316C22.0979 26.3205 22.7337 25.8457 23.4828 25.9032C24.2172 25.9343 24.8562 26.4311 25.1922 27.2337C25.2486 27.3681 25.3321 27.4894 25.4374 27.5902C25.5427 27.691 25.6676 27.769 25.8044 27.8195C25.9411 27.87 26.0868 27.8918 26.2323 27.8836C26.3779 27.8755 26.5202 27.8374 26.6504 27.772C27.4271 27.381 28.2358 27.421 28.8155 27.875C29.3848 28.324 29.594 29.0915 29.3865 29.9811Z" fill="white"/>
</svg>
