<svg viewBox="0 0 90 88" fill="none" xmlns="http://www.w3.org/2000/svg">
<path fill-rule="evenodd" clip-rule="evenodd" d="M0 5C0 2.23858 2.23858 0 5 0H78C80.7614 0 83 2.23858 83 5V52.2073C81.1364 51.2879 79.1204 50.6306 77 50.2835V9C77 7.34314 75.6569 6 74 6H10C8.34315 6 7 7.34315 7 9V56.0265C7 56.9213 8.08517 57.3657 8.71277 56.7279L29.9698 35.1262C31.2233 33.8523 33.3057 33.9502 34.4343 35.336L54.9828 60.568C53.0877 63.7712 52 67.5086 52 71.5C52 75.3133 52.9928 78.8948 54.7339 82H5C2.23858 82 0 79.7614 0 77V5ZM56.4737 58.3699C60.0133 53.7866 65.3624 50.6721 71.4507 50.0964L63.2913 40.0119C61.5957 37.9162 58.2113 38.9465 57.9711 41.6316L56.4737 58.3699ZM54 18.5C54 23.1944 57.8056 27 62.5 27C67.1944 27 71 23.1944 71 18.5C71 13.8056 67.1944 10 62.5 10C57.8056 10 54 13.8056 54 18.5ZM90 71.5C90 80.6127 82.6127 88 73.5 88C64.3873 88 57 80.6127 57 71.5C57 62.3873 64.3873 55 73.5 55C82.6127 55 90 62.3873 90 71.5ZM64.2621 66.5047C63.4572 67.9902 63 69.6917 63 71.5C63 77.299 67.701 82 73.5 82C75.3082 82 77.0098 81.5429 78.4952 80.7379L64.2621 66.5047ZM82.7379 76.4954C83.5428 75.0098 84 73.3083 84 71.5C84 65.701 79.299 61 73.5 61C71.6918 61 69.9901 61.4571 68.5046 62.2621L82.7379 76.4954Z" fill="black"/>
</svg>
