<svg width="49" height="41" viewBox="0 0 49 41" fill="none" xmlns="http://www.w3.org/2000/svg">
<path fill-rule="evenodd" clip-rule="evenodd" d="M4 0C1.79086 0 0 1.88651 0 4.21364V31.6023C0 33.9294 1.79086 35.8159 4 35.8159H34L39.8753 40.7672C40.5301 41.319 41.5 40.8279 41.5 39.9446V35.8159H45C47.2091 35.8159 49 33.9294 49 31.6023V4.21364C49 1.88651 47.2091 0 45 0H4ZM5.62 28.054C5.98 28.378 6.394 28.54 6.862 28.54C7.186 28.54 7.51 28.45 7.834 28.27C8.194 28.126 8.464 27.874 8.644 27.514L10.264 22.762C10.336 22.546 10.498 22.438 10.75 22.438H19.012C19.264 22.438 19.408 22.546 19.444 22.762L21.226 27.514C21.406 27.874 21.658 28.126 21.982 28.27C22.342 28.45 22.684 28.54 23.008 28.54C23.476 28.54 23.89 28.378 24.25 28.054C24.61 27.73 24.79 27.298 24.79 26.758C24.79 26.578 24.754 26.344 24.682 26.056L17.5 7.75C17.248 7.138 16.852 6.67 16.312 6.346C15.808 6.022 15.268 5.86 14.692 5.86C14.116 5.86 13.576 6.022 13.072 6.346C12.568 6.67 12.19 7.138 11.938 7.75L5.188 26.056C5.116 26.344 5.08 26.578 5.08 26.758C5.08 27.298 5.26 27.73 5.62 28.054ZM17.23 19.198H12.37C12.154 19.198 11.974 19.126 11.83 18.982C11.722 18.802 11.704 18.604 11.776 18.388L14.206 10.936C14.314 10.576 14.494 10.396 14.746 10.396C14.962 10.396 15.124 10.576 15.232 10.936L17.824 18.334C17.896 18.586 17.86 18.802 17.716 18.982C17.608 19.126 17.446 19.198 17.23 19.198ZM33.7688 28C34.5608 28.36 35.4608 28.54 36.4688 28.54C38.0528 28.54 39.4388 28.18 40.6268 27.46C41.8508 26.74 42.8048 25.75 43.4888 24.49C44.1728 23.194 44.5148 21.754 44.5148 20.17C44.5148 18.622 44.1728 17.236 43.4888 16.012C42.8048 14.788 41.8508 13.834 40.6268 13.15C39.4388 12.43 38.0528 12.07 36.4688 12.07C35.4608 12.07 34.5608 12.232 33.7688 12.556C32.9768 12.88 32.2928 13.33 31.7168 13.906V6.346C31.7168 5.734 31.5188 5.284 31.1228 4.996C30.7628 4.672 30.3488 4.51 29.8808 4.51C29.4128 4.51 28.9808 4.672 28.5848 4.996C28.2248 5.284 28.0448 5.734 28.0448 6.346V26.866C28.0448 27.406 28.2248 27.82 28.5848 28.108C28.9808 28.396 29.4128 28.54 29.8808 28.54C30.3488 28.54 30.7628 28.396 31.1228 28.108C31.5188 27.82 31.7168 27.406 31.7168 26.866V26.65C32.2928 27.226 32.9768 27.676 33.7688 28ZM39.5468 23.842C38.6828 24.742 37.5488 25.192 36.1448 25.192C34.7768 25.192 33.6968 24.742 32.9048 23.842C32.1128 22.906 31.7168 21.682 31.7168 20.17C31.7168 18.73 32.1128 17.578 32.9048 16.714C33.6968 15.85 34.7768 15.418 36.1448 15.418C37.5488 15.418 38.6828 15.85 39.5468 16.714C40.4108 17.578 40.8428 18.73 40.8428 20.17C40.8428 21.682 40.4108 22.906 39.5468 23.842Z" fill="#4A0E5C"/>
</svg>
