<svg width="25" height="25" viewBox="0 0 25 25" fill="none" xmlns="http://www.w3.org/2000/svg">
<path d="M24.9075 23.1678L19.8851 10.0698C19.7923 9.82794 19.635 9.62114 19.4329 9.47563C19.2309 9.33012 18.9933 9.25244 18.7503 9.25244C18.5072 9.25244 18.2696 9.33012 18.0676 9.47563C17.8656 9.62114 17.7082 9.82794 17.6155 10.0698L12.593 23.1678C12.5305 23.3284 12.4982 23.5007 12.4978 23.6749C12.4974 23.849 12.5289 24.0215 12.5906 24.1825C12.6523 24.3434 12.743 24.4897 12.8573 24.6128C12.9717 24.7359 13.1075 24.8335 13.257 24.9C13.4065 24.9664 13.5667 25.0004 13.7284 25C13.8902 24.9996 14.0502 24.9648 14.1994 24.8975C14.3486 24.8303 14.484 24.732 14.5978 24.6083C14.7116 24.4846 14.8016 24.3378 14.8626 24.1766L15.8855 21.5095H21.615L22.6379 24.1766C22.7307 24.4186 22.888 24.6255 23.0901 24.771C23.2922 24.9166 23.5299 24.9943 23.773 24.9943C23.9748 24.9942 24.1734 24.9405 24.3513 24.8381C24.5292 24.7356 24.6809 24.5876 24.793 24.407C24.9051 24.2264 24.9741 24.0189 24.994 23.8028C25.0139 23.5866 24.984 23.3685 24.907 23.1678H24.9075ZM16.8995 18.8659L18.7505 14.0383L20.6016 18.8659H16.8995Z" fill="#4A0E5C"/>
<path d="M13.1611 17.7195C13.3518 17.4358 13.4302 17.0823 13.3791 16.7365C13.3279 16.3906 13.1514 16.0808 12.8882 15.875C12.877 15.866 12.0511 15.2063 10.8519 13.7883C13.0646 10.5631 14.3179 6.89385 14.8291 5.16709H16.6299C16.9556 5.16709 17.2678 5.02782 17.4981 4.77994C17.7283 4.53205 17.8577 4.19584 17.8577 3.84527C17.8577 3.49471 17.7283 3.1585 17.4981 2.91061C17.2678 2.66272 16.9556 2.52346 16.6299 2.52346H10.1565V1.32181C10.1565 0.971246 10.0272 0.635038 9.79695 0.38715C9.56671 0.139262 9.25444 0 8.92883 0C8.60322 0 8.29095 0.139262 8.0607 0.38715C7.83046 0.635038 7.70112 0.971246 7.70112 1.32181V2.52346H1.22771C0.902104 2.52346 0.58983 2.66272 0.359589 2.91061C0.129348 3.1585 0 3.49471 0 3.84527C0 4.19584 0.129348 4.53205 0.359589 4.77994C0.58983 5.02782 0.902104 5.16709 1.22771 5.16709H12.2353C11.704 6.78631 10.7258 9.34281 9.23353 11.6776C7.48069 9.17338 6.82944 7.55296 6.82442 7.53974C6.69609 7.22045 6.45603 6.96851 6.1563 6.83855C5.85656 6.70858 5.52132 6.71109 5.22329 6.84551C4.92525 6.97993 4.68846 7.23544 4.56426 7.55661C4.44006 7.87778 4.43847 8.23872 4.55984 8.56114C4.59221 8.64405 5.37181 10.6178 7.5097 13.6039C7.56104 13.6754 7.61183 13.745 7.66261 13.8147C5.47281 16.4794 3.32431 18.1323 2.42529 18.6658C2.13942 18.8337 1.9272 19.1169 1.83531 19.4533C1.74343 19.7896 1.7794 20.1515 1.93532 20.4593C2.09125 20.767 2.35435 20.9955 2.66674 21.0945C2.97914 21.1934 3.31524 21.1546 3.60111 20.9868C3.72165 20.9159 6.31324 19.3712 9.27259 15.8443C10.5293 17.2911 11.3932 17.9736 11.4451 18.0133C11.5757 18.1154 11.7237 18.1888 11.8806 18.2293C12.0376 18.2698 12.2004 18.2765 12.3598 18.2492C12.5192 18.2218 12.672 18.1609 12.8095 18.0699C12.947 17.9789 13.0665 17.8597 13.1611 17.7189V17.7195Z" fill="#4A0E5C"/>
</svg>
