<svg width="30" height="35" viewBox="0 0 30 35" fill="none" xmlns="http://www.w3.org/2000/svg">
<path d="M25.6468 0H1.24378C0.91391 0 0.597549 0.129069 0.364295 0.358812C0.131041 0.588556 0 0.900155 0 1.22506V33.7749C0 34.0998 0.131041 34.4114 0.364295 34.6412C0.597549 34.8709 0.91391 35 1.24378 35H25.6468C26.8009 34.9987 27.9074 34.5465 28.7235 33.7427C29.5396 32.9389 29.9987 31.8491 30 30.7123V4.28771C29.9987 3.15094 29.5396 2.0611 28.7235 1.25727C27.9074 0.453453 26.8009 0.00129695 25.6468 0ZM27.5124 30.7123C27.5124 31.1996 27.3159 31.667 26.966 32.0117C26.6161 32.3563 26.1416 32.5499 25.6468 32.5499H8.66915V2.45012H25.6468C26.1416 2.45012 26.6161 2.64373 26.966 2.98834C27.3159 3.33296 27.5124 3.80035 27.5124 4.28771V30.7123ZM12.7382 10.6354C12.7382 10.3105 12.8692 9.99886 13.1025 9.76912C13.3357 9.53938 13.6521 9.41031 13.982 9.41031H22.1971C22.527 9.41031 22.8434 9.53938 23.0766 9.76912C23.3099 9.99886 23.4409 10.3105 23.4409 10.6354C23.4409 10.9603 23.3099 11.2719 23.0766 11.5016C22.8434 11.7314 22.527 11.8604 22.1971 11.8604H13.982C13.6521 11.8604 13.3357 11.7314 13.1025 11.5016C12.8692 11.2719 12.7382 10.9603 12.7382 10.6354ZM24.6294 15.4303C24.6294 15.7552 24.4983 16.0668 24.2651 16.2965C24.0318 16.5263 23.7154 16.6553 23.3856 16.6553H12.7935C12.4637 16.6553 12.1473 16.5263 11.914 16.2965C11.6808 16.0668 11.5498 15.7552 11.5498 15.4303C11.5498 15.1054 11.6808 14.7938 11.914 14.564C12.1473 14.3343 12.4637 14.2052 12.7935 14.2052H23.3856C23.7154 14.2052 24.0318 14.3343 24.2651 14.564C24.4983 14.7938 24.6294 15.1054 24.6294 15.4303Z" fill="#4A0E5C"/>
</svg>

