<svg width="25" height="25" viewBox="0 0 25 25" fill="none" xmlns="http://www.w3.org/2000/svg">
<path d="M14.0735 2.22671C12.4878 1.12999 10.1428 2.02778 9.99092 3.78847L9.7811 6.23493H13.9886C14.2536 6.23493 14.5077 6.32685 14.6951 6.49047C14.8825 6.6541 14.9877 6.87602 14.9877 7.10742C14.9877 7.33881 14.8825 7.56073 14.6951 7.72436C14.5077 7.88798 14.2536 7.9799 13.9886 7.9799H9.63022L8.47919 21.3412C8.19143 24.6846 3.5653 26.2132 0.815605 23.874L0.302035 23.4378C0.112167 23.2763 0.0035521 23.0555 8.55822e-05 22.8241C-0.00338093 22.5926 0.0985844 22.3695 0.283551 22.2037C0.468517 22.0379 0.721332 21.943 0.986381 21.94C1.25143 21.937 1.507 22.026 1.69687 22.1875L2.20944 22.6238C3.74415 23.929 6.32599 23.0757 6.48686 21.2103L7.6259 7.9799H4.9961C4.73111 7.9799 4.47697 7.88798 4.28959 7.72436C4.10221 7.56073 3.99694 7.33881 3.99694 7.10742C3.99694 6.87602 4.10221 6.6541 4.28959 6.49047C4.47697 6.32685 4.73111 6.23493 4.9961 6.23493H7.77678L7.99859 3.65847C8.27036 0.5018 12.4718 -1.1062 15.3145 0.857775L16.1078 1.40744C16.2139 1.47759 16.3028 1.56554 16.3695 1.66612C16.4361 1.7667 16.4791 1.87789 16.4958 1.99316C16.5126 2.10843 16.5028 2.22547 16.467 2.33739C16.4313 2.44932 16.3703 2.55388 16.2876 2.64494C16.205 2.73601 16.1023 2.81173 15.9857 2.86768C15.8691 2.92363 15.7408 2.95868 15.6085 2.97076C15.4761 2.98284 15.3424 2.97171 15.215 2.93803C15.0876 2.90435 14.9693 2.8488 14.8668 2.77463L14.0735 2.22671ZM13.1942 12.5832C13.3252 12.4832 13.4811 12.4114 13.6495 12.3734C13.8179 12.3355 13.9941 12.3326 14.164 12.3648C14.334 12.397 14.4929 12.4635 14.6282 12.559C14.7634 12.6545 14.8711 12.7763 14.9428 12.9147L16.8042 16.5024L11.2838 21.3229C11.1018 21.4874 11.0011 21.7078 11.0034 21.9366C11.0057 22.1654 11.1108 22.3842 11.296 22.546C11.4813 22.7077 11.7319 22.7995 11.9938 22.8015C12.2558 22.8035 12.5082 22.7155 12.6967 22.5566L17.6845 18.2011L19.2572 21.2348C20.1614 22.9771 22.7892 23.3811 24.3199 22.0121L24.6946 21.6771C24.7908 21.596 24.8674 21.4989 24.9199 21.3916C24.9723 21.2842 24.9996 21.1687 25 21.0519C25.0004 20.9352 24.974 20.8196 24.9223 20.7119C24.8706 20.6042 24.7947 20.5067 24.6991 20.4251C24.6034 20.3436 24.49 20.2796 24.3655 20.2369C24.2411 20.1943 24.1081 20.174 23.9744 20.1771C23.8408 20.1801 23.7092 20.2066 23.5875 20.2549C23.4657 20.3032 23.3564 20.3724 23.2658 20.4582L22.8901 20.7933C22.7634 20.9066 22.6069 20.9912 22.4343 21.0397C22.2617 21.0883 22.078 21.0992 21.8994 21.0717C21.7208 21.0442 21.5526 20.979 21.4094 20.8818C21.2662 20.7847 21.1523 20.6584 21.0776 20.5141L19.1942 16.8828L24.6866 12.0867C24.8686 11.9222 24.9693 11.7018 24.9671 11.473C24.9648 11.2442 24.8597 11.0254 24.6744 10.8636C24.4892 10.7019 24.2386 10.6101 23.9766 10.6081C23.7146 10.6061 23.4622 10.6941 23.2738 10.853L18.314 15.184L16.7633 12.194C16.5631 11.8077 16.2621 11.4677 15.8845 11.2011C15.5069 10.9345 15.0631 10.7487 14.5886 10.6587C14.1141 10.5686 13.622 10.5768 13.1518 10.6825C12.6815 10.7882 12.2461 10.9885 11.8803 11.2674L11.3328 11.6854C11.1331 11.8376 11.0109 12.0529 10.993 12.2839C10.9751 12.5148 11.063 12.7425 11.2374 12.9169C11.4117 13.0912 11.6583 13.198 11.9228 13.2136C12.1873 13.2292 12.448 13.1525 12.6477 13.0002L13.1952 12.5823L13.1942 12.5832Z" fill="#4A0E5C"/>
</svg>
