<svg viewBox="0 0 88 88" xmlns="http://www.w3.org/2000/svg">
<path fill-rule="evenodd" clip-rule="evenodd" d="M52.2593 6.51148C50.3131 -2.1046 38.0365 -2.10459 36.0902 6.51148C34.8289 12.0956 28.4208 14.7499 23.5804 11.6932C16.1117 6.97695 7.43082 15.6578 12.1471 23.1265C15.2037 27.967 12.5494 34.375 6.96535 35.6364C-1.65072 37.5826 -1.65072 49.8592 6.96535 51.8054C12.5494 53.0668 15.2037 59.4749 12.1471 64.3153C7.43082 71.784 16.1117 80.4649 23.5804 75.7486C28.4208 72.692 34.8289 75.3463 36.0902 80.9304C38.0365 89.5464 50.3131 89.5464 52.2593 80.9304C53.5207 75.3463 59.9287 72.692 64.7692 75.7486C72.2379 80.4649 80.9187 71.784 76.2025 64.3153C73.1458 59.4749 75.8001 53.0668 81.3842 51.8054C90.0003 49.8592 90.0003 37.5826 81.3842 35.6364C75.8001 34.375 73.1458 27.967 76.2025 23.1265C80.9187 15.6578 72.2379 6.97695 64.7692 11.6932C59.9287 14.7499 53.5207 12.0956 52.2593 6.51148ZM43.5 60C52.0604 60 59 52.8366 59 44C59 35.1634 52.0604 28 43.5 28C34.9396 28 28 35.1634 28 44C28 52.8366 34.9396 60 43.5 60Z" fill="white"/>
</svg>
